<!-- <svg xmlns="http://www.w3.org/2000/svg" viewBox="0 0 37.52 40.66"><title>skull</title><g id="Layer_2" data-name="Layer 2"><g id="Layer_1-2" data-name="Layer 1"><path d="M18.26,3H19c5.59.21,9.76,1.86,12.4,4.88a13.82,13.82,0,0,1,3.09,10c-.49,4.91-3.54,8.67-6.09,9.34l-2.24.59v2.32c0,1.53,0,4.05.08,6.3a23.21,23.21,0,0,1-7.73,1.24,20.43,20.43,0,0,1-6.92-1.08v-7.3l0-2.24-2.16-.63A9.82,9.82,0,0,1,3,17.53C2.8,14.42,4.35,10.6,7,7.79A15,15,0,0,1,18.26,3m0-3C6,0-.48,10.59,0,17.75A12.8,12.8,0,0,0,8.56,29.28v9.2a20.59,20.59,0,0,0,9.92,2.18,23.62,23.62,0,0,0,10.81-2.34c-.17-2.84-.17-7.36-.17-8.19,3.85-1,7.71-5.78,8.32-11.94C38,12.68,35.64.65,19.09,0l-.82,0Z"/><path d="M15.59,18.14c0,3-1.9,5.37-4.25,5.37s-4.25-2.4-4.25-5.37,1-4.67,4.46-3.27C13.76,15.75,15.59,15.17,15.59,18.14Z"/><path d="M21.5,18.12c0,3,1.86,5.37,4.14,5.37s4.14-2.4,4.14-5.37-.93-4.67-4.35-3.27C23.29,15.74,21.5,15.16,21.5,18.12Z"/><polygon points="18.51 21.93 15.75 28.03 20.85 27.86 18.51 21.93"/><polygon points="12.97 38.3 14.56 32.85 15.47 38.45 17.59 38.64 18.77 32.71 20.18 38.59 22.39 38.74 22.9 32.5 24.75 38.01 25.04 38.89 13.41 39.33 12.97 38.3"/></g></g></svg> -->
<svg xmlns="http://www.w3.org/2000/svg" width="64" height="64" id="virus"><path style="line-height:normal;text-indent:0;text-align:start;text-decoration-line:none;text-decoration-style:solid;text-decoration-color:#000;text-transform:none;block-progression:tb;isolation:auto;mix-blend-mode:normal" fill="#474545" fill-rule="evenodd" d="m709.27 1257.365-.104.994 9.98 1.032 1.887 4.66.928-.377-2.113-5.217-10.578-1.092z" color="#000" font-family="sans-serif" font-weight="400" overflow="visible" transform="translate(-668 -1224.361)"></path><path style="line-height:normal;text-indent:0;text-align:start;text-decoration-line:none;text-decoration-style:solid;text-decoration-color:#000;text-transform:none;block-progression:tb;isolation:auto;mix-blend-mode:normal" fill="#474545" d="M706.492 1235.361a4.792 4.792 0 0 0-4.783 4.785.5.5 0 1 0 1 0 3.777 3.777 0 0 1 3.783-3.785.5.5 0 1 0 0-1zm-12.984 0a.5.5 0 1 0 0 1 3.777 3.777 0 0 1 3.783 3.785.5.5 0 1 0 1 0 4.792 4.792 0 0 0-4.783-4.785z" color="#000" font-family="sans-serif" font-weight="400" overflow="visible" transform="translate(-668 -1224.361)"></path><path style="line-height:normal;text-indent:0;text-align:start;text-decoration-line:none;text-decoration-style:solid;text-decoration-color:#000;text-transform:none;block-progression:tb;isolation:auto;mix-blend-mode:normal" fill="#474545" fill-rule="evenodd" d="m690.729 1257.365-10.579 1.092-2.113 5.217.926.377 1.887-4.66 9.982-1.032-.103-.994zm16.736 4.018-.588.807 8.123 5.927v6.522h1v-7.032l-8.535-6.224zm-14.93 0-8.527 6.224v7.032h1v-6.522l8.117-5.927-.59-.807zM715 1241.86v6.74l-8.115 5.64.572.82 8.543-5.938v-7.262h-1zm-31 0v7.262l8.543 5.938.572-.82-8.115-5.64v-6.74h-1z" color="#000" font-family="sans-serif" font-weight="400" overflow="visible" transform="translate(-668 -1224.361)"></path><path fill="#f4608a" d="M39.14 20.997a7.14 7.14 0 0 1-7.14 7.14 7.14 7.14 0 0 1-7.14-7.14 7.14 7.14 0 0 1 7.14-7.14 7.14 7.14 0 0 1 7.14 7.14z"></path><path fill="#49b2d6" d="M44.852 36.705A12.852 12.852 0 0 1 32 49.557a12.852 12.852 0 0 1-12.852-12.852A12.852 12.852 0 0 1 32 23.853a12.852 12.852 0 0 1 12.852 12.852z"></path><path fill="#1395bf" d="M31.286 23.878a12.852 12.852 0 0 0-12.138 12.827 12.852 12.852 0 0 0 7.14 11.494c2.998-1.537 4.998-4.232 4.998-7.335V23.878zm1.428.011v16.975c0 3.107 2.004 5.807 5.01 7.343a12.852 12.852 0 0 0 7.128-11.502A12.852 12.852 0 0 0 32.714 23.89z"></path><path style="line-height:normal;text-indent:0;text-align:start;text-decoration-line:none;text-decoration-style:solid;text-decoration-color:#000;text-transform:none;block-progression:tb;isolation:auto;mix-blend-mode:normal" fill="#474545" fill-rule="evenodd" d="M684.5 1274.361c-.823 0-1.5.678-1.5 1.5 0 .823.677 1.5 1.5 1.5s1.5-.677 1.5-1.5c0-.822-.677-1.5-1.5-1.5zm0 1c.282 0 .5.218.5.5 0 .282-.218.5-.5.5a.493.493 0 0 1-.5-.5c0-.282.218-.5.5-.5zm31-1c-.823 0-1.5.678-1.5 1.5 0 .823.677 1.5 1.5 1.5s1.5-.677 1.5-1.5c0-.822-.677-1.5-1.5-1.5zm0 1c.282 0 .5.218.5.5 0 .282-.218.5-.5.5a.493.493 0 0 1-.5-.5c0-.282.218-.5.5-.5zm-37-12c-.823 0-1.5.678-1.5 1.5 0 .823.677 1.5 1.5 1.5s1.5-.677 1.5-1.5c0-.822-.677-1.5-1.5-1.5zm0 1c.282 0 .5.218.5.5 0 .282-.218.5-.5.5a.493.493 0 0 1-.5-.5c0-.282.218-.5.5-.5zm43-1c-.823 0-1.5.678-1.5 1.5 0 .823.677 1.5 1.5 1.5s1.5-.677 1.5-1.5c0-.822-.677-1.5-1.5-1.5zm0 1c.282 0 .5.218.5.5 0 .282-.218.5-.5.5a.493.493 0 0 1-.5-.5c0-.282.218-.5.5-.5zm-37-25c-.823 0-1.5.678-1.5 1.5 0 .823.677 1.5 1.5 1.5s1.5-.677 1.5-1.5c0-.822-.677-1.5-1.5-1.5zm0 1c.282 0 .5.218.5.5 0 .282-.218.5-.5.5a.493.493 0 0 1-.5-.5c0-.282.218-.5.5-.5zm31-1c-.823 0-1.5.678-1.5 1.5 0 .823.677 1.5 1.5 1.5s1.5-.677 1.5-1.5c0-.822-.677-1.5-1.5-1.5zm0 1c.282 0 .5.218.5.5 0 .282-.218.5-.5.5a.493.493 0 0 1-.5-.5c0-.282.218-.5.5-.5z" color="#000" font-family="sans-serif" font-weight="400" overflow="visible" transform="translate(-668 -1224.361)"></path></svg>